<svg id="Capa_1" data-name="Capa 1" xmlns="http://www.w3.org/2000/svg" viewBox="0 0 512 320"><defs><style>.cls-1{fill:#ff5672;}</style></defs><title>row</title><path class="cls-1" d="M490.67,0H21.33A21.34,21.34,0,0,0,0,21.33v85.34A21.34,21.34,0,0,0,21.33,128H490.67A21.34,21.34,0,0,0,512,106.67V21.33A21.34,21.34,0,0,0,490.67,0Z"/><path class="cls-1" d="M490.67,192H21.33A21.34,21.34,0,0,0,0,213.33v85.34A21.34,21.34,0,0,0,21.33,320H490.67A21.34,21.34,0,0,0,512,298.67V213.33A21.34,21.34,0,0,0,490.67,192Z"/></svg>